# xmcd CD database file
#
# Track frame offsets:
#	151
#	14777
#	27144
#	42827
#	55425
#	70089
#	84316
#	96301
#	108724
#	124707
#	137699
#	151207
#	163231
#
# Disc length: 2351 seconds
#
# Revision: 0
# Processed by: cddbd v1.5.1PL2 Copyright (c) Steve Scherf et al.
# Submitted via: CDex 1.51
#
DISCID=af092d0d
DTITLE=Christie - Yellow River
DYEAR=1900
DGENRE=Blues
TTITLE0=Gotta be free
TTITLE1=Inside looking out
TTITLE2=Johnny one time
TTITLE3=Yellow river
TTITLE4=San bernadino
TTITLE5=New York City
TTITLE6=Here i am
TTITLE7=Put your money down
TTITLE8=Until the dawn
TTITLE9=I've got a feeling
TTITLE10=Coming home tonight
TTITLE11=Country boy
TTITLE12=Down the Mississippi line
EXTD=
EXTT0=
EXTT1=
EXTT2=
EXTT3=
EXTT4=
EXTT5=
EXTT6=
EXTT7=
EXTT8=
EXTT9=
EXTT10=
EXTT11=
EXTT12=
PLAYORDER=
